# xmcd CD database file
#
# Track frame offsets:
#	150
#	16748
#	37156
#	53456
#	63038
#	79431
#	96233
#	106038
#	120021
#	135073
#	147033
#	161013
#	180953
#	197436
#	220692
#
# Disc length: 3451 seconds
#
# Revision: 1
# Processed by: cddbd v1.5.1PL2 Copyright (c) Steve Scherf et al.
# Submitted via: CDex 1.51
#
DISCID=ab0d790f
DTITLE=Pe. Zezinho - Sereno e Forte
DYEAR=2002
DGENRE=Gospel
TTITLE0=Milagres acontecem
TTITLE1=O viajante
TTITLE2=Idolatrias
TTITLE3=Não troco a minha fé
TTITLE4=Lírios e pardais
TTITLE5=Mão do grande amém
TTITLE6=Sereno e forte
TTITLE7=Água de poço
TTITLE8=Sabedoria
TTITLE9=Graça sobre graça
TTITLE10=O meu Senhor e eu
TTITLE11=Matinas
TTITLE12=Águas eternas
TTITLE13=Um coração para amar
TTITLE14=Faixa interativa
EXTD=YEAR: 2002
EXTT0=
EXTT1=
EXTT2=
EXTT3=
EXTT4=
EXTT5=
EXTT6=
EXTT7=
EXTT8=
EXTT9=
EXTT10=
EXTT11=
EXTT12=
EXTT13=
EXTT14=
PLAYORDER=
